<svg width="130" height="67" viewBox="0 0 130 67" fill="none" xmlns="http://www.w3.org/2000/svg">
<g id="_Chart">
<path id="Background base" d="M1 1.72412C21.7959 3.45711 23.0837 44.9459 43.6667 49.7241C60.6398 53.6643 69.2345 31.2979 86.3333 33.7241C104.88 36.3557 110.815 59.6623 129 65.7241H1V1.72412Z" fill="#FEF3F2"/>
<path id="Background gradient" d="M1 1.72412C21.7959 3.45711 23.0837 44.9459 43.6667 49.7241C60.6398 53.6643 69.2345 31.2979 86.3333 33.7241C104.88 36.3557 110.815 59.6623 129 65.7241H1V1.72412Z" fill="url(#paint0_linear_140_18362)"/>
<path id="Line" d="M129 65.7241C110.815 59.6623 104.88 36.3557 86.3333 33.7241C69.2345 31.2979 60.6398 53.6643 43.6667 49.7241C23.0837 44.9459 21.7959 3.45711 0.999996 1.72412" stroke="#F04438" stroke-width="2" stroke-linecap="round" stroke-linejoin="round"/>
</g>
<defs>
<linearGradient id="paint0_linear_140_18362" x1="65" y1="1.72412" x2="65" y2="65.7241" gradientUnits="userSpaceOnUse">
<stop offset="0.641167" stop-color="white" stop-opacity="0"/>
<stop offset="1" stop-color="white"/>
</linearGradient>
</defs>
</svg>
