<svg width="130" height="67" viewBox="0 0 130 67" fill="none" xmlns="http://www.w3.org/2000/svg">
<g id="_Chart">
<path id="Background base" d="M129 1.72412C108.204 3.45711 106.916 44.9459 86.3333 49.7241C69.3602 53.6643 60.7655 31.2979 43.6667 33.7241C25.1204 36.3557 19.1855 59.6623 1 65.7241H129V1.72412Z" fill="#ECFDF3"/>
<path id="Background gradient" d="M129 1.72412C108.204 3.45711 106.916 44.9459 86.3333 49.7241C69.3602 53.6643 60.7655 31.2979 43.6667 33.7241C25.1204 36.3557 19.1855 59.6623 1 65.7241H129V1.72412Z" fill="url(#paint0_linear_140_18343)"/>
<path id="Line" d="M1 65.7241C19.1855 59.6623 25.1204 36.3557 43.6667 33.7241C60.7655 31.2979 69.3602 53.6643 86.3333 49.7241C106.916 44.9459 108.204 3.45711 129 1.72412" stroke="#12B76A" stroke-width="2" stroke-linecap="round" stroke-linejoin="round"/>
</g>
<defs>
<linearGradient id="paint0_linear_140_18343" x1="65" y1="1.72412" x2="65" y2="65.7241" gradientUnits="userSpaceOnUse">
<stop offset="0.641167" stop-color="white" stop-opacity="0"/>
<stop offset="1" stop-color="white"/>
</linearGradient>
</defs>
</svg>
