<svg width="20" height="21" viewBox="0 0 20 21" fill="none" xmlns="http://www.w3.org/2000/svg">
<g id="more-vertical">
<g id="Icon">
<path d="M10 11.5574C10.4603 11.5574 10.8334 11.1843 10.8334 10.7241C10.8334 10.2639 10.4603 9.89077 10 9.89077C9.53978 9.89077 9.16669 10.2639 9.16669 10.7241C9.16669 11.1843 9.53978 11.5574 10 11.5574Z" stroke="#98A2B3" stroke-width="1.66667" stroke-linecap="round" stroke-linejoin="round"/>
<path d="M10 5.7241C10.4603 5.7241 10.8334 5.351 10.8334 4.89077C10.8334 4.43053 10.4603 4.05743 10 4.05743C9.53978 4.05743 9.16669 4.43053 9.16669 4.89077C9.16669 5.351 9.53978 5.7241 10 5.7241Z" stroke="#98A2B3" stroke-width="1.66667" stroke-linecap="round" stroke-linejoin="round"/>
<path d="M10 17.3908C10.4603 17.3908 10.8334 17.0177 10.8334 16.5574C10.8334 16.0972 10.4603 15.7241 10 15.7241C9.53978 15.7241 9.16669 16.0972 9.16669 16.5574C9.16669 17.0177 9.53978 17.3908 10 17.3908Z" stroke="#98A2B3" stroke-width="1.66667" stroke-linecap="round" stroke-linejoin="round"/>
</g>
</g>
</svg>
